<?xml version="1.0" encoding="utf-8"?>
<!-- Generator: Adobe Illustrator 16.0.0, SVG Export Plug-In . SVG Version: 6.00 Build 0)  -->
<!DOCTYPE svg PUBLIC "-//W3C//DTD SVG 1.1//EN" "http://www.w3.org/Graphics/SVG/1.1/DTD/svg11.dtd">
<svg version="1.1" id="Layer_1" xmlns="http://www.w3.org/2000/svg" xmlns:xlink="http://www.w3.org/1999/xlink" x="0px" y="0px"
	 width="128px" height="128px" viewBox="0 0 128 128" enable-background="new 0 0 128 128" xml:space="preserve">
<g>
	<g>
		<g>
			<path fill="#282D33" d="M117.426,116.718H10.569c-4.059,0-7.362-3.338-7.362-7.441V85.604c-0.168-0.967,0.919-2.694,7.219-12.704
				c2.912-4.627,8.598-13.581,13.954-21.56l3.321,2.229C19.135,66.329,8.81,82.946,7.207,85.727v23.55
				c0,1.897,1.508,3.441,3.362,3.441h106.857c1.856,0,3.366-1.544,3.366-3.441V85.424c-0.404-1.157-3.45-6.635-21.854-32.152
				l3.244-2.34c22.609,31.349,22.609,33.128,22.609,34.306v24.039C124.792,113.38,121.487,116.718,117.426,116.718z"/>
		</g>
		<g>
			<path fill="#282D33" d="M34.407,89.155H10.569c-2.897,0-5.535-1.736-6.721-4.424l3.66-1.615c0.546,1.239,1.748,2.039,3.061,2.039
				h23.838V89.155z"/>
		</g>
		<g>
			<path fill="#282D33" d="M117.424,89.155H93.393v-4h24.031c1.317,0,2.521-0.8,3.066-2.037l3.66,1.611
				C122.968,87.418,120.327,89.155,117.424,89.155z"/>
		</g>
		<g>
			<path fill="#282D33" d="M63.998,110.815c-18.011,0-32.664-14.854-32.664-33.11c0-18.258,14.653-33.111,32.664-33.111
				c18.011,0,32.664,14.853,32.664,33.111C96.662,95.962,82.009,110.815,63.998,110.815z M63.998,48.594
				c-15.806,0-28.664,13.059-28.664,29.111s12.858,29.11,28.664,29.11s28.664-13.059,28.664-29.11S79.804,48.594,63.998,48.594z"/>
		</g>
		<g>
			<path fill="#282D33" d="M63.05,97.355c-1.491-0.073-2.969-0.319-4.393-0.731l1.111-3.842c1.126,0.325,2.296,0.52,3.477,0.577
				L63.05,97.355z M67.49,97.061l-0.725-3.934c1.158-0.214,2.291-0.563,3.367-1.038l1.615,3.66
				C70.387,96.35,68.955,96.791,67.49,97.061z M54.549,94.896c-1.291-0.73-2.5-1.61-3.596-2.617l2.707-2.945
				c0.871,0.801,1.832,1.501,2.857,2.08L54.549,94.896z M75.583,93.495L73.177,90.3c0.94-0.708,1.803-1.527,2.563-2.435l3.066,2.568
				C77.851,91.574,76.766,92.604,75.583,93.495z M48.044,88.926c-0.84-1.223-1.542-2.543-2.085-3.922l3.721-1.467
				c0.434,1.099,0.993,2.15,1.662,3.125L48.044,88.926z M81.261,86.729l-3.564-1.816c0.538-1.055,0.956-2.17,1.244-3.316
				l3.879,0.975C82.459,84.008,81.935,85.407,81.261,86.729z M44.804,80.717c-0.15-0.992-0.227-2.006-0.226-3.013
				c0-0.476,0.017-0.948,0.05-1.416l3.99,0.283c-0.026,0.374-0.04,0.753-0.04,1.134c0,0.807,0.061,1.617,0.181,2.41L44.804,80.717z
				 M83.413,78.171l-4-0.082l0.005-0.384c-0.001-1.063-0.106-2.126-0.313-3.157l3.922-0.787c0.259,1.288,0.391,2.615,0.392,3.942
				L83.413,78.171z M49.258,73.085l-3.828-1.16c0.43-1.418,1.021-2.79,1.759-4.078l3.472,1.986
				C50.072,70.861,49.601,71.955,49.258,73.085z M78.022,71.179c-0.487-1.077-1.096-2.101-1.811-3.042l3.186-2.418
				c0.896,1.18,1.66,2.463,2.27,3.813L78.022,71.179z M52.754,66.979l-2.938-2.715c1.009-1.091,2.141-2.067,3.365-2.901l2.251,3.308
				C54.459,65.333,53.558,66.11,52.754,66.979z M73.769,65.579c-0.909-0.757-1.902-1.409-2.954-1.937l1.795-3.575
				c1.325,0.666,2.576,1.486,3.72,2.439L73.769,65.579z M58.557,63.035l-1.431-3.735c1.389-0.532,2.842-0.902,4.318-1.098
				l0.527,3.965C60.805,62.321,59.656,62.614,58.557,63.035z M67.503,62.438c-1.142-0.269-2.321-0.406-3.505-0.406v-4
				c1.493,0,2.981,0.172,4.423,0.513L67.503,62.438z"/>
		</g>
		<g>
			<path fill="#282D33" d="M121.066,37.515C109.338,23.598,88.585,15.31,65.503,15.31c-0.113,0-0.224,0-0.337,0
				C40.881,14.764,19.114,23.051,6.92,37.512l-3.058-2.578c12.966-15.378,35.901-24.223,61.343-23.623c0.116,0,0.235,0,0.352,0
				c24.196,0,46.089,8.818,58.568,23.626L121.066,37.515z"/>
		</g>
		<g>
			<path fill="#282D33" d="M96.964,37.896l-3.916-0.818c0.103-0.488-0.01-0.739-0.133-0.921c-0.464-0.685-1.821-1.283-3.633-1.6
				c-3.811-0.685-17.134-1.378-25.331-1.618c-8.153,0.241-21.419,0.933-25.228,1.612c-1.815,0.319-3.173,0.917-3.637,1.601
				c-0.124,0.182-0.237,0.435-0.136,0.927l-3.918,0.806c-0.298-1.449-0.04-2.825,0.746-3.981c1.123-1.652,3.225-2.759,6.248-3.291
				c4.186-0.746,17.911-1.439,25.867-1.673l0.058-0.002l0.059,0.002c8,0.233,21.787,0.928,25.972,1.68
				c3.019,0.529,5.122,1.638,6.245,3.294C97.011,35.07,97.266,36.447,96.964,37.896z"/>
		</g>
		<g>
			<g>
				<path fill="#282D33" d="M31.558,54.536H4.882C2.189,54.534,0,52.324,0,49.608V39.371c0-2.716,2.19-4.926,4.882-4.926h14.297v4
					H4.882C4.396,38.444,4,38.86,4,39.371v10.238c0,0.511,0.396,0.927,0.883,0.927h26.675c0.487,0,0.883-0.416,0.883-0.926V39.371
					c0-0.511-0.396-0.926-0.883-0.926h-6.227v-4h6.227c2.692,0,4.883,2.21,4.883,4.926v10.239
					C36.441,52.326,34.25,54.536,31.558,54.536z"/>
			</g>
			<g>
				<path fill="#282D33" d="M123.115,54.536H96.439c-2.691,0-4.881-2.21-4.881-4.926V39.371c0-2.716,2.189-4.926,4.881-4.926h6.228
					v4h-6.228c-0.485,0-0.881,0.416-0.881,0.926v10.239c0,0.511,0.396,0.926,0.881,0.926h26.676c0.488,0,0.885-0.416,0.885-0.926
					V39.371c0-0.511-0.396-0.926-0.885-0.926H108.82v-4h14.295c2.693,0,4.885,2.21,4.885,4.926v10.239
					C128,52.326,125.809,54.536,123.115,54.536z"/>
			</g>
		</g>
	</g>
</g>
</svg>
